<svg width="28" height="26" viewBox="0 0 28 26" fill="none" xmlns="http://www.w3.org/2000/svg">
<path d="M1.34992 19.3588C1.34992 19.8294 1.34992 20.2171 1.34992 20.6047C1.34992 20.9646 1.23825 21.2692 0.819506 21.2969C0.400762 21.3246 0.205348 21.0477 0.177431 20.6878C0.0936825 19.7464 -0.101731 18.7773 0.0657663 17.8636C0.372845 16.0916 0.428678 14.2919 0.707841 12.5199C1.37783 8.36668 3.24822 4.85032 6.57026 2.19229C7.85441 1.16784 9.33397 0.447954 10.9531 0.0880121C11.0927 0.0603243 11.2323 0.00494857 11.3998 0.00494857C11.7069 -0.0227393 11.986 0.0603242 12.0977 0.392578C12.2094 0.780208 11.986 1.00171 11.651 1.11246C11.2881 1.22321 10.8973 1.30628 10.5344 1.41703C8.83148 1.99847 7.40775 2.96755 6.17943 4.24119C4.56029 5.90246 3.41572 7.84061 2.77365 10.0833C2.88531 9.94488 2.99698 9.80645 3.10864 9.66801C3.22031 9.50188 3.33197 9.30806 3.44364 9.14194C5.17445 6.42853 7.51942 4.49038 10.5902 3.38287C16.1735 1.44472 22.3151 3.74281 25.33 7.06535C28.0937 10.1387 28.7358 13.5997 27.1446 17.4206C26.335 19.3864 25.1067 21.0477 23.4038 22.349C19.1047 25.6162 14.2752 26.7791 8.94315 25.4778C5.67694 24.6748 3.22031 22.7644 1.68491 19.7741C1.62908 19.6633 1.57325 19.5803 1.51741 19.4695C1.51741 19.4695 1.4895 19.4418 1.34992 19.3588ZM12.9631 24.6748C15.6989 24.6471 18.4068 23.9272 20.8913 22.4875C23.1805 21.1585 24.9113 19.3587 25.9163 16.9222C27.2842 13.6274 26.7537 10.6371 24.3809 7.95136C23.2642 6.67772 21.8684 5.79171 20.333 5.1272C14.8614 2.71836 8.8594 4.15812 5.34195 8.72662C3.8903 10.6094 2.82948 12.7137 2.04782 14.9841C1.90824 15.3717 1.88033 15.8147 1.93616 16.2023C2.46657 19.4418 4.14154 21.8783 7.12859 23.4012C8.88731 24.3426 10.8135 24.6748 12.9631 24.6748Z" fill="#FF6A6A"/>
</svg>
