<svg width="10" height="10" viewBox="0 0 10 10" fill="none" xmlns="http://www.w3.org/2000/svg">
<path fill-rule="evenodd" clip-rule="evenodd" d="M2.50016 1.66669H7.50016C8.42064 1.66669 9.16683 2.41288 9.16683 3.33335V7.08335C9.16683 8.00383 8.42064 8.75002 7.50016 8.75002H2.50016C1.57969 8.75002 0.833496 8.00383 0.833496 7.08335V3.33335C0.833496 2.41288 1.57969 1.66669 2.50016 1.66669ZM5.5835 5.64585L8.22516 3.68752C8.34305 3.60085 8.36909 3.43537 8.2835 3.31669C8.24269 3.26002 8.18069 3.22229 8.11161 3.21209C8.04254 3.20188 7.97227 3.22008 7.91683 3.26252L5.246 5.20835C5.17916 5.27841 5.08656 5.31804 4.98975 5.31804C4.89293 5.31804 4.80033 5.27841 4.7335 5.20835L2.0835 3.26252C2.02832 3.22141 1.95903 3.20401 1.89098 3.21418C1.82293 3.22435 1.76174 3.26125 1.721 3.31669C1.63451 3.43429 1.65865 3.59957 1.77516 3.68752L4.40016 5.62502C4.5635 5.77998 4.7792 5.86774 5.00433 5.87085C5.21871 5.87081 5.42531 5.79055 5.5835 5.64585Z" fill="#7E68FF"/>
</svg>
