<svg width="12" height="12" viewBox="0 0 12 12" fill="none" xmlns="http://www.w3.org/2000/svg">
<path d="M8.08632 9.00556L6.24784 10.844C5.61204 11.4798 4.82877 11.7805 3.89804 11.746C2.96731 11.7116 2.15959 11.352 1.47487 10.6673C0.790159 9.98254 0.430565 9.17482 0.396094 8.24409C0.361622 7.31336 0.66229 6.53009 1.2981 5.89429L3.13657 4.05581L4.12652 5.04576L2.28805 6.88424C1.90503 7.26725 1.72383 7.73718 1.74446 8.29403C1.76508 8.85088 1.98163 9.33554 2.39411 9.74802C2.80659 10.1605 3.29125 10.377 3.8481 10.3977C4.40495 10.4183 4.87488 10.2371 5.25789 9.85408L7.09637 8.01561L8.08632 9.00556ZM4.72756 8.40451L3.73762 7.41457L7.41457 3.73761L8.40452 4.72756L4.72756 8.40451ZM9.00556 8.08632L8.01561 7.09637L9.85409 5.25789C10.2371 4.87487 10.4183 4.40494 10.3977 3.8481C10.3771 3.29125 10.1605 2.80659 9.74802 2.39411C9.33554 1.98163 8.85088 1.76508 8.29403 1.74445C7.73719 1.72383 7.26726 1.90503 6.88424 2.28804L5.04576 4.12652L4.05581 3.13657L5.89429 1.29809C6.5301 0.662285 7.31337 0.361618 8.24409 0.396089C9.17482 0.430561 9.98255 0.790154 10.6673 1.47487C11.352 2.15958 11.7116 2.96731 11.746 3.89804C11.7805 4.82876 11.4798 5.61203 10.844 6.24784L9.00556 8.08632Z" fill="white"/>
</svg>
