<svg width="22" height="19" viewBox="0 0 22 19" fill="none" xmlns="http://www.w3.org/2000/svg">
<path d="M7.16687 7.14447C6.83125 6.87653 6.51544 6.61675 6.19147 6.36861C4.75226 5.26422 3.28625 4.19712 1.75848 3.21622C1.68389 3.16845 1.60347 3.13117 1.52889 3.08573C1.45664 3.04146 1.4077 2.98089 1.42867 2.89002C1.44965 2.80032 1.51724 2.75838 1.60348 2.76188C1.66058 2.76304 1.68505 2.74556 1.70486 2.69431C1.84237 2.33783 2.03466 2.00815 2.21412 1.67264C2.2316 1.64002 2.25025 1.60739 2.2654 1.57361C2.38543 1.29868 2.45185 1.25208 2.74086 1.2812C2.99141 1.30567 3.24081 1.35227 3.46339 1.47576C4.74877 2.18755 6.08543 2.80265 7.351 3.55056C8.56064 4.26585 9.70384 5.08482 10.8832 5.84903C10.9811 5.91311 11.0242 5.91311 11.1034 5.81991C12.4669 4.2076 13.8304 2.59645 15.2801 1.0587C15.5446 0.777941 15.8266 0.512325 16.1389 0.282827C16.2928 0.169826 16.4501 0.0579952 16.6552 0.0708098C16.7181 0.0743047 16.7333 -0.00957703 16.7997 0.00090765C16.809 0.0405165 16.7764 0.0568251 16.7589 0.0801244C16.7076 0.148857 16.7286 0.168661 16.8078 0.159341C16.8883 0.150021 16.957 0.181477 17.0071 0.24089C17.3602 0.661443 17.7926 0.992291 18.2237 1.32431C18.3088 1.38954 18.3811 1.46993 18.3962 1.58526C18.4172 1.75418 18.3333 1.87185 18.1608 1.90563C18.113 1.91495 18.0757 1.92659 18.0419 1.9662C17.4185 2.68266 16.7507 3.35717 16.1016 4.05033C15.5772 4.61067 15.0668 5.18384 14.5506 5.75117C14.5412 5.76049 14.5366 5.77331 14.5203 5.80127C14.7696 5.76982 15.0062 5.74069 15.2416 5.70924C15.9734 5.61138 16.7053 5.51003 17.4371 5.41217C18.1189 5.3213 18.8006 5.22927 19.4823 5.14423C20.2305 5.05103 20.9786 4.96832 21.7349 4.98696C21.8352 4.98929 21.8457 5.02773 21.848 5.11044C21.8538 5.33761 21.8258 5.57061 21.8876 5.79078C22.0286 6.29987 21.961 6.81362 21.9412 7.32621C21.9307 7.59298 21.9529 7.8551 21.996 8.11722C22.0193 8.25934 21.9401 8.36186 21.7874 8.39681C20.3668 8.71485 18.9183 8.86513 17.4884 9.12841C16.7076 9.2717 15.9245 9.41149 15.1437 9.55362C15.1367 9.55478 15.1297 9.56411 15.1111 9.57925C15.3197 9.81341 15.5271 10.0499 15.738 10.2817C16.393 11.0063 17.105 11.6774 17.7693 12.395C18.4685 13.1499 19.1082 13.9549 19.7177 14.7831C19.8086 14.9066 19.8855 15.0406 19.9671 15.1699C20.0417 15.2876 20.0172 15.4017 19.9461 15.5101C19.8727 15.6243 19.7737 15.7175 19.6758 15.8107C19.2621 16.2009 18.8332 16.5714 18.3601 16.8871C18.2366 16.9698 18.1095 17.0478 17.9627 17.0851C17.7856 17.1294 17.711 17.0968 17.6189 16.9325C17.4651 17.0537 17.3194 16.9943 17.1831 16.9011C16.6505 16.5376 16.1611 16.124 15.738 15.6359C15.0563 14.8484 14.3851 14.0516 13.687 13.278C12.8049 12.3006 11.8796 11.3628 10.9216 10.4588C10.8377 10.3796 10.8109 10.3959 10.7515 10.4786C9.65723 12.0059 8.62473 13.5762 7.57591 15.135C6.95827 16.053 6.3418 16.9733 5.72533 17.8913C5.5983 18.0812 5.47828 18.2734 5.38739 18.4842C5.35243 18.5646 5.32446 18.6462 5.3128 18.7359C5.286 18.9561 5.06342 19.076 4.88978 18.9467C4.36654 18.5553 3.75938 18.2722 3.33752 17.7492C3.32121 17.7293 3.30723 17.7072 3.27344 17.7037C3.1266 17.6909 3.11728 17.6699 3.17322 17.5301C3.369 17.042 3.61371 16.5772 3.8631 16.1159C4.81869 14.3451 5.95607 12.6909 7.09928 11.039C7.10744 11.0273 7.11327 11.0157 7.12842 10.9924C7.02004 10.9795 6.92682 11.0191 6.83009 11.0331C6.72871 11.0471 6.62964 11.0739 6.52942 11.0925C5.06458 11.3745 3.62421 11.7647 2.16635 12.0723C1.72934 12.1643 1.29117 12.2482 0.840178 12.2354C0.574478 12.2284 0.553494 12.2389 0.497557 12.0129C0.448612 11.8113 0.353062 11.6249 0.332086 11.4129C0.288968 10.9691 0.224874 10.5287 0.172433 10.086C0.164276 10.0184 0.159611 9.96951 0.0815324 9.93806C-0.0175226 9.89728 -0.025679 9.78895 0.053565 9.70973C0.107171 9.65614 0.175929 9.62468 0.244685 9.59672C2.15936 8.80921 4.08102 8.038 6.06795 7.44736C6.42338 7.34135 6.78347 7.25165 7.1692 7.14681L7.16687 7.14447ZM14.2033 9.25772C14.4084 9.19831 14.6158 9.17385 14.8162 9.12142C15.1938 9.0224 15.5749 8.94202 15.9583 8.87095C17.1877 8.64262 18.4184 8.4271 19.6548 8.24187C20.1874 8.16149 20.7199 8.07528 21.2607 8.0613C21.4634 8.05548 21.4623 8.05897 21.4588 7.85743C21.4471 7.07574 21.545 6.29755 21.524 5.51585C21.5217 5.40984 21.5019 5.40285 21.4156 5.41916C20.8854 5.51818 20.3493 5.57177 19.8133 5.63002C18.9031 5.73021 17.9965 5.85835 17.0899 5.97718C15.9944 6.12163 14.9025 6.30803 13.7931 6.32201C13.6334 6.32434 13.4749 6.36278 13.306 6.33599C13.6381 5.88515 14.0191 5.49255 14.3688 5.07433C15.3628 3.88606 16.4757 2.80381 17.521 1.66098C17.5933 1.58293 17.591 1.55264 17.5094 1.4874C17.1528 1.20082 16.8381 0.876959 16.6377 0.457572C16.534 0.578728 16.4361 0.702217 16.3289 0.816383C15.0866 2.13862 13.8933 3.50396 12.7023 4.87279C12.1977 5.45294 11.7432 6.07853 11.1617 6.58995C11.1361 6.61208 11.1104 6.6715 11.0755 6.63772C10.9449 6.5119 10.755 6.50607 10.6186 6.40938C10.4287 6.27541 10.2329 6.15425 10.0348 6.03542C9.7563 5.86767 9.4871 5.68244 9.2179 5.50071C7.95466 4.6433 6.67626 3.81384 5.3023 3.13932C4.65553 2.82129 4.01926 2.48228 3.40395 2.106C3.20002 1.98135 2.98442 1.89048 2.75368 1.82757C2.65579 1.80078 2.61268 1.82757 2.56141 1.90213C2.40525 2.13862 2.25841 2.38093 2.1174 2.6279C2.02262 2.79255 2.0568 2.91914 2.21995 3.00768C2.24442 3.0205 2.2689 3.03448 2.2922 3.04846C4.03324 4.08528 5.68921 5.24209 7.2904 6.48394C7.56892 6.70062 7.74605 6.98371 7.96863 7.24699C7.77169 7.32038 7.5829 7.38446 7.39994 7.46018C7.06548 7.59881 6.73336 7.7456 6.38259 7.8388C5.34076 8.11373 4.32108 8.45739 3.30955 8.82668C2.36329 9.17268 1.44266 9.58624 0.480074 9.8868C0.404326 9.9101 0.419488 9.94388 0.434638 9.99631C0.619929 10.6242 0.689844 11.2754 0.821529 11.9138C0.835513 11.9802 0.844841 12.0001 0.914762 11.9826C1.11753 11.9325 1.3238 11.8917 1.52657 11.8416C2.84925 11.5189 4.16609 11.1753 5.49109 10.863C6.22759 10.6895 6.98275 10.6102 7.70993 10.3982C7.80199 10.3714 7.89173 10.312 8.00943 10.3341C7.88124 10.5741 7.76353 10.8048 7.63651 11.0308C7.52697 11.2242 7.46754 11.442 7.33585 11.6261C6.92565 12.2016 6.51893 12.7794 6.11805 13.3619C5.22306 14.6597 4.39333 15.9994 3.55661 17.3344C3.51116 17.4067 3.5368 17.4299 3.58807 17.4754C3.97264 17.8109 4.4178 18.0544 4.86646 18.3083C5.00164 18.0241 5.15432 17.7492 5.33029 17.4859C5.72068 16.9022 6.11106 16.3186 6.50146 15.7349C7.59456 14.0993 8.67251 12.4544 9.78891 10.8339C9.8332 10.7687 9.8705 10.6883 9.93343 10.6487C10.1898 10.4856 10.3145 10.2235 10.4637 9.97884C10.5895 9.7738 10.7224 9.57226 10.8529 9.36839C11.1454 9.69342 11.4111 10.0266 11.7152 10.3202C12.8771 11.442 14.011 12.5907 15.0575 13.8221C15.7986 14.6946 16.5317 15.573 17.4045 16.3221C17.535 16.4339 17.6516 16.562 17.6958 16.7449C18.2401 16.2999 18.7854 15.8724 19.2831 15.3889C19.3553 15.319 19.346 15.2818 19.2796 15.2177C19.1001 15.0418 18.9334 14.853 18.7808 14.6538C18.0944 13.7603 17.3474 12.9192 16.5678 12.1061C16.0084 11.5224 15.3721 11.0063 14.9421 10.3015C14.723 9.94272 14.4573 9.61303 14.2056 9.26005L14.2033 9.25772Z" fill="#583DFF"/>
</svg>
