<svg width="24" height="25" viewBox="0 0 24 25" fill="none" xmlns="http://www.w3.org/2000/svg">
<path d="M23.6339 0.539958C23.4856 0.62028 23.368 0.716411 23.2397 0.821277C23.1115 0.926143 22.9738 0.997729 22.8255 1.07805C22.5075 1.25618 22.1801 1.40102 21.862 1.57915C21.258 1.90918 20.6434 2.24795 20.0996 2.65162C19.5785 2.99578 19.0667 3.37323 18.5858 3.76648C18.4575 3.87134 18.3292 3.97621 18.2117 4.07234C17.7508 4.49013 17.2698 4.88339 16.8089 5.30118C15.7468 6.2924 14.674 7.29235 13.6521 8.33266C12.6515 9.35548 11.651 10.3783 10.6811 11.4169C10.2069 11.9275 9.72203 12.4468 9.24781 12.9574C8.76029 13.5608 8.23263 14.115 7.73573 14.6851C6.70855 15.8935 5.67199 17.0686 4.64481 18.277C3.75789 19.3298 2.94185 20.4474 2.18602 21.6387C1.72401 22.4259 1.27138 23.2465 0.829444 24.0583C1.68865 23.5605 2.49835 22.9804 3.28797 22.3757C3.79033 21.965 4.27261 21.5297 4.74421 21.1032C5.04479 20.8165 5.32531 20.5052 5.61651 20.1852C5.79952 19.9947 5.95178 19.7883 6.10404 19.5819C6.52743 19.031 6.98158 18.4958 7.40497 17.9449C7.91388 17.3241 8.39202 16.6874 8.90092 16.0666C9.42051 15.437 9.95079 14.7987 10.4704 14.1691C10.9459 13.6165 11.4321 13.0552 11.9183 12.4939C12.3832 11.95 12.8788 11.422 13.3637 10.9026C13.8593 10.3746 14.3442 9.85528 14.8398 9.32722C15.346 8.79043 15.8818 8.31146 16.4081 7.79921C17.3539 6.8621 18.3599 5.99862 19.3766 5.1264C19.9538 4.6545 20.4802 4.14225 21.0172 3.62126C21.5435 3.10902 22.0699 2.59677 22.5655 2.06871C22.7699 1.86065 22.985 1.64385 23.1693 1.41125C23.2561 1.29931 23.3536 1.17864 23.4203 1.04217C23.4764 0.91443 23.5124 0.762149 23.5885 0.658957C23.6005 0.608196 23.6018 0.566175 23.6339 0.539958Z" fill="#FF6A6A"/>
</svg>
